<svg width="800" height="800" viewBox="0 0 800 800" fill="none" xmlns="http://www.w3.org/2000/svg">
<path d="M716 400.185C716 226.186 574.656 85 400.5 85C226.344 85 85 226.186 85 400.185C85 496.018 128.539 582.386 196.687 640.359C197.318 640.99 197.949 640.99 197.949 641.621C203.628 646.038 209.307 650.455 215.617 654.872C218.772 656.765 221.296 659.249 224.451 661.773C276.59 697.124 338.138 716.014 401.131 716C464.124 716.014 525.672 697.124 577.811 661.773C580.966 659.88 583.49 657.396 586.645 655.463C592.324 651.086 598.634 646.669 604.313 642.252C604.944 641.621 605.575 641.621 605.575 640.99C672.461 582.346 716 496.018 716 400.185ZM400.5 676.286C341.186 676.286 286.92 657.356 242.119 625.846C242.75 620.798 244.012 615.789 245.274 610.741C249.034 597.061 254.548 583.924 261.68 571.659C268.621 559.67 276.824 548.943 286.92 539.478C296.385 530.013 307.743 521.218 319.101 514.277C331.09 507.336 343.71 502.288 357.592 498.502C371.582 494.731 386.011 492.835 400.5 492.863C443.513 492.558 484.945 509.057 515.973 538.847C530.486 553.36 541.844 570.397 550.047 589.918C554.464 601.276 557.619 613.265 559.512 625.846C512.943 658.585 457.425 676.196 400.5 676.286ZM303.957 384.449C298.397 371.719 295.601 357.955 295.754 344.065C295.754 330.222 298.278 316.34 303.957 303.72C309.636 291.1 317.208 279.782 326.673 270.317C336.138 260.852 347.496 253.319 360.116 247.64C372.736 241.961 386.618 239.437 400.5 239.437C415.013 239.437 428.264 241.961 440.884 247.64C453.504 253.319 464.862 260.891 474.327 270.317C483.792 279.782 491.364 291.14 497.043 303.72C502.722 316.34 505.246 330.222 505.246 344.065C505.246 358.578 502.722 371.829 497.043 384.41C491.562 396.843 483.865 408.175 474.327 417.852C464.646 427.376 453.314 435.06 440.884 440.529C414.809 451.245 385.56 451.245 359.485 440.529C347.055 435.06 335.723 427.376 326.042 417.852C316.491 408.316 308.977 396.978 303.957 384.449ZM596.741 593.704C596.741 592.442 596.11 591.811 596.11 590.549C589.904 570.808 580.757 552.114 568.977 535.1C557.186 517.96 542.696 502.843 526.069 490.339C513.371 480.786 499.607 472.74 485.054 466.361C491.675 461.993 497.809 456.929 503.353 451.256C512.76 441.969 521.022 431.589 527.962 420.337C541.937 397.377 549.154 370.941 548.785 344.065C548.98 324.169 545.115 304.443 537.427 286.092C529.836 268.41 518.91 252.355 505.246 238.806C491.602 225.399 475.545 214.694 457.921 207.256C439.539 199.581 419.787 195.73 399.869 195.938C379.948 195.743 360.196 199.607 341.817 207.296C324.041 214.717 307.945 225.649 294.492 239.437C281.085 253.066 270.38 269.111 262.942 286.723C255.254 305.074 251.389 324.8 251.584 344.696C251.584 358.578 253.477 371.829 257.263 384.41C261.049 397.661 266.097 409.65 273.038 420.968C279.348 432.326 288.182 442.422 297.647 451.887C303.326 457.566 309.636 462.575 316.577 466.992C301.979 473.541 288.21 481.802 275.562 491.601C259.156 504.221 244.643 519.325 232.654 535.731C220.754 552.675 211.598 571.387 205.521 591.18C204.89 592.442 204.89 593.704 204.89 594.335C155.041 543.895 124.122 475.826 124.122 400.185C124.122 248.271 248.429 124.083 400.5 124.083C552.571 124.083 676.878 248.271 676.878 400.185C676.795 472.748 647.983 542.326 596.741 593.704Z" fill="#BB86FC"/>
</svg>
