<svg width="800" height="800" viewBox="0 0 800 800" fill="none" xmlns="http://www.w3.org/2000/svg">
<path fill-rule="evenodd" clip-rule="evenodd" d="M49 189.4C49 131.245 96.1446 84.1 154.3 84.1H645.7C703.857 84.1 751 131.245 751 189.4V505.3C751 563.457 703.857 610.6 645.7 610.6H435.1V645.7H505.3C524.686 645.7 540.4 661.414 540.4 680.8C540.4 700.186 524.686 715.9 505.3 715.9H294.7C275.315 715.9 259.6 700.186 259.6 680.8C259.6 661.414 275.315 645.7 294.7 645.7H364.9V610.6H154.3C96.1446 610.6 49 563.457 49 505.3V189.4ZM154.3 154.3C134.915 154.3 119.2 170.015 119.2 189.4V505.3C119.2 524.686 134.915 540.4 154.3 540.4H645.7C665.086 540.4 680.8 524.686 680.8 505.3V189.4C680.8 170.015 665.086 154.3 645.7 154.3H154.3Z" fill="#BB86FC"/>
</svg>
