<svg width="800" height="800" viewBox="0 0 800 800" fill="none" xmlns="http://www.w3.org/2000/svg">
<path d="M400 109C239.285 109 109 239.285 109 400C109 560.713 239.285 691 400 691C560.713 691 691 560.713 691 400C691 239.285 560.713 109 400 109Z" stroke="#BB86FC" stroke-width="50" stroke-linecap="round" stroke-linejoin="round"/>
<path d="M283.6 666.786V458.2L400 254.5L516.4 458.2V666.786" stroke="#BB86FC" stroke-width="50" stroke-linecap="round" stroke-linejoin="round"/>
<path d="M283.6 458.2C283.6 458.2 316.389 487.3 341.8 487.3C367.21 487.3 400 458.2 400 458.2C400 458.2 432.79 487.3 458.2 487.3C483.61 487.3 516.4 458.2 516.4 458.2" stroke="#BB86FC" stroke-width="50" stroke-linecap="round" stroke-linejoin="round"/>
</svg>
