<svg width="800" height="800" viewBox="0 0 800 800" fill="none" xmlns="http://www.w3.org/2000/svg">
<path d="M606.141 84C592.665 84 579.187 89.1466 568.904 99.4297L505.333 163L637 294.667L700.57 231.096C721.137 210.53 721.137 177.189 700.57 156.623L643.378 99.43C633.095 89.1468 619.617 84 606.141 84ZM452.667 215.667L143.507 524.826C143.507 524.826 167.675 522.66 176.681 531.666C185.687 540.672 178.274 599.606 189.334 610.666C200.394 621.726 258.956 613.941 267.356 622.342C275.757 630.742 275.174 656.493 275.174 656.493L584.333 347.333L452.667 215.667ZM110.333 610.666L85.4915 681.026C84.5148 683.803 84.0108 686.723 84 689.667C84 704.21 95.79 716 110.333 716C113.277 715.989 116.197 715.485 118.974 714.509C119.06 714.475 119.146 714.44 119.231 714.406L119.9 714.2C119.952 714.166 120.003 714.131 120.054 714.097L189.334 689.667L149.834 650.167L110.333 610.666Z" fill="#BB86FC"/>
</svg>
