<svg width="800" height="800" viewBox="0 0 800 800" fill="none" xmlns="http://www.w3.org/2000/svg">
<path d="M109 400C109 262.821 109 194.232 151.616 151.616C194.232 109 262.821 109 400 109C537.177 109 605.769 109 648.383 151.616C691 194.232 691 262.821 691 400C691 537.177 691 605.769 648.383 648.383C605.769 691 537.177 691 400 691C262.821 691 194.232 691 151.616 648.383C109 605.769 109 537.177 109 400Z" stroke="#BB86FC" stroke-width="50"/>
<path d="M545.5 487.3H472.75H400" stroke="#BB86FC" stroke-width="50" stroke-linecap="round"/>
<path d="M254.5 341.8L261.321 347.483C298.618 378.565 317.267 394.104 317.267 414.55C317.267 434.996 298.618 450.535 261.321 481.617L254.5 487.3" stroke="#BB86FC" stroke-width="50" stroke-linecap="round"/>
</svg>
