<svg width="800" height="800" viewBox="0 0 800 800" fill="none" xmlns="http://www.w3.org/2000/svg">
<path fill-rule="evenodd" clip-rule="evenodd" d="M139.405 190.901C128 207.15 128 255.452 128 352.056V399.629C128 569.959 256.064 652.62 336.413 687.719C358.209 697.239 369.106 702 399.9 702C430.694 702 441.591 697.239 463.386 687.719C543.735 652.62 671.8 569.959 671.8 399.629V352.056C671.8 255.452 671.8 207.15 660.395 190.901C648.991 174.651 603.574 159.105 512.742 128.013L495.437 122.089C448.087 105.882 424.413 97.7778 399.9 97.7778C375.387 97.7778 351.713 105.882 304.364 122.089L287.059 128.013C196.226 159.105 150.81 174.651 139.405 190.901ZM445.217 490.522C445.217 507.208 431.691 520.733 415.006 520.733H384.794C368.109 520.733 354.583 507.208 354.583 490.522V448.187C327.493 432.514 309.267 403.224 309.267 369.678C309.267 319.622 349.843 279.044 399.9 279.044C449.957 279.044 490.533 319.622 490.533 369.678C490.533 403.224 472.307 432.514 445.217 448.187V490.522Z" fill="#BB86FC" stroke="#BB86FC" stroke-width="27.7778"/>
</svg>
